HIERARCHY
ROOT pelvis
{
	OFFSET 0.003123 -0.351407 0.012037
	CHANNELS 6 Xposition Yposition Zposition Zrotation Yrotation Xrotation 
	JOINT left_hip
	{
		OFFSET 0.058189 -0.092763 -0.026001
		CHANNELS 3 Zrotation Yrotation Xrotation
		JOINT left_knee
		{
			OFFSET 0.054695 -0.378753 -0.009396
			CHANNELS 3 Zrotation Yrotation Xrotation
			JOINT left_ankle
			{
				OFFSET -0.043453 -0.403059 -0.031876
				CHANNELS 3 Zrotation Yrotation Xrotation
				JOINT left_foot
				{
					OFFSET 0.047257 -0.057997 0.118216
					CHANNELS 3 Zrotation Yrotation Xrotation
					End Site
					{
						OFFSET 0.000000 0.000000 0.000000
					}
				}
			}
		}
	}
	JOINT right_hip
	{
		OFFSET -0.063267 -0.103908 -0.021250
		CHANNELS 3 Zrotation Yrotation Xrotation
		JOINT right_knee
		{
			OFFSET -0.044210 -0.362380 -0.016824
			CHANNELS 3 Zrotation Yrotation Xrotation
			JOINT right_ankle
			{
				OFFSET 0.015417 -0.410728 -0.020192
				CHANNELS 3 Zrotation Yrotation Xrotation
				JOINT right_foot
				{
					OFFSET -0.038812 -0.058328 0.119049
					CHANNELS 3 Zrotation Yrotation Xrotation
					End Site
					{
						OFFSET 0.000000 0.000000 0.000000
					}
				}
			}
		}
	}
	JOINT spine_1
	{
		OFFSET -0.002763 0.109891 -0.027618
		CHANNELS 3 Zrotation Yrotation Xrotation
		JOINT spine_2
		{
			OFFSET 0.009448 0.131853 -0.005940
			CHANNELS 3 Zrotation Yrotation Xrotation
			JOINT spine_3
			{
				OFFSET -0.011330 0.052235 0.028447
				CHANNELS 3 Zrotation Yrotation Xrotation
				JOINT neck
				{
					OFFSET -0.012164 0.165167 -0.031615
					CHANNELS 3 Zrotation Yrotation Xrotation
					JOINT head
					{
						OFFSET 0.024783 0.160452 0.020737
						CHANNELS 3 Zrotation Yrotation Xrotation
						End Site
						{
							OFFSET 0.000000 0.000000 0.000000
						}
					}
				}
				JOINT left_collar
				{
					OFFSET 0.046364 0.084944 -0.007220
					CHANNELS 3 Zrotation Yrotation Xrotation
					JOINT left_shoulder
					{
						OFFSET 0.119239 0.057728 -0.015461
						CHANNELS 3 Zrotation Yrotation Xrotation
						JOINT left_elbow
						{
							OFFSET 0.254123 -0.072151 -0.042459
							CHANNELS 3 Zrotation Yrotation Xrotation
							JOINT left_wrist
							{
								OFFSET 0.251987 0.023221 -0.002472
								CHANNELS 3 Zrotation Yrotation Xrotation
								JOINT left_index_1
								{
									OFFSET 0.101902 -0.008688 0.019351
									CHANNELS 3 Zrotation Yrotation Xrotation
									JOINT left_index_2
									{
										OFFSET 0.030149 -0.011154 0.001151
										CHANNELS 3 Zrotation Yrotation Xrotation
										JOINT left_index_3
										{
											OFFSET 0.006504 -0.021577 -0.002433
											CHANNELS 3 Zrotation Yrotation Xrotation
											End Site
											{
												OFFSET 0.000000 0.000000 0.000000
											}
										}
									}
								}
								JOINT left_middle_1
								{
									OFFSET 0.109398 -0.006328 -0.003981
									CHANNELS 3 Zrotation Yrotation Xrotation
									JOINT left_middle_2
									{
										OFFSET 0.026472 -0.015218 -0.004641
										CHANNELS 3 Zrotation Yrotation Xrotation
										JOINT left_middle_3
										{
											OFFSET 0.005022 -0.023347 -0.001911
											CHANNELS 3 Zrotation Yrotation Xrotation
											End Site
											{
												OFFSET 0.000000 0.000000 0.000000
											}
										}
									}
								}
								JOINT left_pinky_1
								{
									OFFSET 0.084047 -0.014539 -0.043750
									CHANNELS 3 Zrotation Yrotation Xrotation
									JOINT left_pinky_2
									{
										OFFSET 0.012124 -0.014448 -0.005375
										CHANNELS 3 Zrotation Yrotation Xrotation
										JOINT left_pinky_3
										{
											OFFSET 0.003798 -0.018853 0.000167
											CHANNELS 3 Zrotation Yrotation Xrotation
											End Site
											{
												OFFSET 0.000000 0.000000 0.000000
											}
										}
									}
								}
								JOINT left_ring_1
								{
									OFFSET 0.097444 -0.009268 -0.027345
									CHANNELS 3 Zrotation Yrotation Xrotation
									JOINT left_ring_2
									{
										OFFSET 0.023561 -0.016057 -0.001895
										CHANNELS 3 Zrotation Yrotation Xrotation
										JOINT left_ring_3
										{
											OFFSET 0.004257 -0.023548 0.000814
											CHANNELS 3 Zrotation Yrotation Xrotation
											End Site
											{
												OFFSET 0.000000 0.000000 0.000000
											}
										}
									}
								}
								JOINT left_thumb_1
								{
									OFFSET 0.040636 -0.017977 0.025611
									CHANNELS 3 Zrotation Yrotation Xrotation
									JOINT left_thumb_2
									{
										OFFSET 0.021637 -0.017639 0.011623
										CHANNELS 3 Zrotation Yrotation Xrotation
										JOINT left_thumb_3
										{
											OFFSET 0.024002 -0.008356 0.006548
											CHANNELS 3 Zrotation Yrotation Xrotation
											End Site
											{
												OFFSET 0.000000 0.000000 0.000000
											}
										}
									}
								}
							}
						}
					}
				}
				JOINT right_collar
				{
					OFFSET -0.047695 0.084339 -0.013400
					CHANNELS 3 Zrotation Yrotation Xrotation
					JOINT right_shoulder
					{
						OFFSET -0.102578 0.053524 -0.012669
						CHANNELS 3 Zrotation Yrotation Xrotation
						JOINT right_elbow
						{
							OFFSET -0.271150 -0.036492 -0.026467
							CHANNELS 3 Zrotation Yrotation Xrotation
							JOINT right_wrist
							{
								OFFSET -0.249267 -0.004533 -0.015325
								CHANNELS 3 Zrotation Yrotation Xrotation
								JOINT right_index_1
								{
									OFFSET -0.099881 -0.011783 0.019600
									CHANNELS 3 Zrotation Yrotation Xrotation
									JOINT right_index_2
									{
										OFFSET -0.030148 -0.011154 0.001151
										CHANNELS 3 Zrotation Yrotation Xrotation
										JOINT right_index_3
										{
											OFFSET -0.006505 -0.021577 -0.002432
											CHANNELS 3 Zrotation Yrotation Xrotation
											End Site
											{
												OFFSET 0.000000 0.000000 0.000000
											}
										}
									}
								}
								JOINT right_middle_1
								{
									OFFSET -0.107376 -0.009422 -0.003734
									CHANNELS 3 Zrotation Yrotation Xrotation
									JOINT right_middle_2
									{
										OFFSET -0.026472 -0.015218 -0.004641
										CHANNELS 3 Zrotation Yrotation Xrotation
										JOINT right_middle_3
										{
											OFFSET -0.005022 -0.023347 -0.001911
											CHANNELS 3 Zrotation Yrotation Xrotation
											End Site
											{
												OFFSET 0.000000 0.000000 0.000000
											}
										}
									}
								}
								JOINT right_pinky_1
								{
									OFFSET -0.082027 -0.017634 -0.043503
									CHANNELS 3 Zrotation Yrotation Xrotation
									JOINT right_pinky_2
									{
										OFFSET -0.012123 -0.014448 -0.005374
										CHANNELS 3 Zrotation Yrotation Xrotation
										JOINT right_pinky_3
										{
											OFFSET -0.003798 -0.018852 0.000167
											CHANNELS 3 Zrotation Yrotation Xrotation
											End Site
											{
												OFFSET 0.000000 0.000000 0.000000
											}
										}
									}
								}
								JOINT right_ring_1
								{
									OFFSET -0.095423 -0.012362 -0.027099
									CHANNELS 3 Zrotation Yrotation Xrotation
									JOINT right_ring_2
									{
										OFFSET -0.023561 -0.016057 -0.001895
										CHANNELS 3 Zrotation Yrotation Xrotation
										JOINT right_ring_3
										{
											OFFSET -0.004257 -0.023548 0.000816
											CHANNELS 3 Zrotation Yrotation Xrotation
											End Site
											{
												OFFSET 0.000000 0.000000 0.000000
											}
										}
									}
								}
								JOINT right_thumb_1
								{
									OFFSET -0.038613 -0.021074 0.025861
									CHANNELS 3 Zrotation Yrotation Xrotation
									JOINT right_thumb_2
									{
										OFFSET -0.021636 -0.017639 0.011623
										CHANNELS 3 Zrotation Yrotation Xrotation
										JOINT right_thumb_3
										{
											OFFSET -0.024004 -0.008353 0.006547
											CHANNELS 3 Zrotation Yrotation Xrotation
											End Site
											{
												OFFSET 0.000000 0.000000 0.000000
											}
										}
									}
								}
							}
						}
					}
				}
			}
		}
	}
}
MOTION
Frames: 7
Frame Time: 0.050000
0.070694 0.917731 -0.032410 -1.633363 0.970339 -14.234482 1.822778 1.979956 15.686064 -3.005173 -0.001237 2.933702 5.794697 4.362003 -10.053487 0.000000 0.000000 0.000000 -6.728205 -0.548773 10.263638 3.793219 -0.156704 14.792684 -6.535400 -10.530258 -5.722044 0.000000 0.000000 0.000000 -2.090129 -0.672731 9.925953 -8.995283 0.838940 -13.976476 9.542139 1.079942 30.687026 2.076072 -0.187544 -1.062253 0.000000 0.000000 0.000000 -2.591569 -3.181871 1.326862 -52.704529 -7.356065 -8.813676 47.372122 -77.987736 -28.582403 3.241932 -0.055995 6.569811 -17.787535 12.475724 3.018257 3.007136 4.189121 14.840823 0.000000 0.000000 0.000000 -15.642278 4.207071 -1.198005 -10.716795 6.125902 16.069992 0.000000 0.000000 0.000000 19.889025 -15.069195 -12.056644 -28.441323 0.375092 1.060878 0.000000 0.000000 0.000000 -6.149035 -1.618155 -1.500589 -22.864960 2.641267 7.980001 0.000000 0.000000 0.000000 6.394404 24.228724 22.131533 -3.646434 -14.339804 -3.168414 0.000000 0.000000 0.000000 -4.675535 6.227758 3.178622 56.522319 24.496987 2.984620 -125.549604 82.488002 -118.191164 6.132628 -2.785954 12.836520 20.219487 -8.260280 1.937306 19.240855 -6.082318 3.465691 0.000000 0.000000 0.000000 25.015893 -2.250203 -4.265996 33.218684 -4.867212 -1.471898 0.000000 0.000000 0.000000 -2.238158 23.376466 -22.456036 53.415874 7.104965 -11.770457 0.000000 0.000000 0.000000 23.963880 7.246103 -5.667326 41.178454 0.760166 -4.011288 0.000000 0.000000 0.000000 2.199229 -23.508018 23.775774 -8.210610 10.784904 -6.801213 0.000000 0.000000 0.000000 
0.074463 0.917772 -0.032410 -1.498573 1.183141 -14.194409 1.192093 1.998236 15.207624 -2.636469 -0.106831 3.690016 5.920516 4.449399 -10.270247 0.000000 0.000000 0.000000 -7.353281 -0.491861 10.281261 4.162415 -0.231204 14.727952 -6.464254 -10.538216 -5.407539 0.000000 0.000000 0.000000 -2.364492 -0.668854 9.909303 -9.375910 0.969969 -14.099652 9.959026 0.800130 30.738649 2.279052 -0.379033 -0.183223 0.000000 0.000000 0.000000 -3.304997 -3.493210 1.428823 -52.617097 -7.421216 -8.787397 51.690894 -78.011169 -32.182867 3.084621 0.107873 5.296402 -13.179548 13.669528 3.787917 -3.478050 4.914239 12.106397 0.000000 0.000000 0.000000 -12.837968 3.689036 -0.742573 -16.165404 7.762396 16.506885 0.000000 0.000000 0.000000 21.659452 -14.106425 -10.513828 -29.424173 -0.490385 -0.929702 0.000000 0.000000 0.000000 -4.290232 -0.867887 -0.912417 -26.655201 2.338564 6.665722 0.000000 0.000000 0.000000 6.996287 21.880693 19.186925 -5.155394 -12.269346 -2.005701 0.000000 0.000000 0.000000 -5.085415 6.887998 3.483616 56.347932 26.456624 3.758639 -125.484712 80.407883 -116.068285 5.670216 -2.549196 10.900519 18.339549 -6.833181 1.812527 20.212650 -4.984664 1.800183 0.000000 0.000000 0.000000 23.807632 -1.049618 -4.275377 33.770730 -3.126649 -3.967131 0.000000 0.000000 0.000000 -4.017702 22.250531 -23.206031 51.777626 5.939561 -9.647264 0.000000 0.000000 0.000000 21.555187 7.669918 -5.612527 39.746027 2.222254 -6.151455 0.000000 0.000000 0.000000 1.008943 -22.138500 22.171622 -5.429809 11.365917 -5.784138 0.000000 0.000000 0.000000 
0.076818 0.917731 -0.032410 -2.395128 2.900301 -13.894335 1.944211 1.762519 14.663230 -2.279580 -0.168582 3.792187 5.701170 2.970255 -10.942994 0.000000 0.000000 0.000000 -6.490845 -0.631751 10.192473 4.492529 -0.349085 14.783110 -6.909930 -12.072569 -4.538900 0.000000 0.000000 0.000000 -2.397070 -0.639940 9.607666 -8.479193 1.023103 -12.878570 9.711021 1.032008 29.121011 2.197010 -0.342408 -0.187061 0.000000 0.000000 0.000000 -3.021300 -5.354079 2.355507 -53.042824 -8.476924 -8.789012 52.647066 -77.179512 -32.836332 3.636594 -0.007015 4.428686 -16.521002 13.942635 3.497843 -11.267869 8.069258 14.558848 0.000000 0.000000 0.000000 -15.001530 6.889930 0.089027 -22.151613 7.238138 11.689960 0.000000 0.000000 0.000000 18.971054 -13.708334 -10.755468 -47.209930 -1.432844 -1.561583 0.000000 0.000000 0.000000 -7.347864 -0.858192 -1.135042 -38.218469 4.116209 9.207455 0.000000 0.000000 0.000000 3.717395 22.048273 19.811426 -0.357032 -8.653776 -2.722998 0.000000 0.000000 0.000000 -5.545157 6.584018 3.293676 56.411484 26.216957 4.191041 -128.716606 78.671333 -117.760632 5.337198 -1.715387 8.391685 17.935655 -6.912599 1.917613 17.544306 -3.519215 0.816100 0.000000 0.000000 0.000000 23.555866 0.099560 -4.458035 32.444055 -3.113557 -2.793464 0.000000 0.000000 0.000000 -5.528779 21.458324 -23.788997 51.074604 6.602868 -10.193298 0.000000 0.000000 0.000000 20.303587 8.852160 -5.999483 39.582548 2.952351 -6.302090 0.000000 0.000000 0.000000 -0.484252 -21.516057 21.155653 -2.292139 10.016491 -4.005104 0.000000 0.000000 0.000000 
0.081059 0.918215 -0.029770 -2.920147 2.354969 -13.628794 2.219005 1.717541 14.494513 -2.342347 -0.171516 3.940739 5.875279 3.491696 -10.956097 0.000000 0.000000 0.000000 -6.040301 -0.619300 9.651565 4.207358 -0.279674 15.301780 -6.649172 -11.663811 -4.034666 0.000000 0.000000 0.000000 -1.530219 -0.623114 9.152528 -9.108519 1.290851 -12.806583 9.460442 1.181409 29.415413 1.983114 -0.349198 0.061742 0.000000 0.000000 0.000000 -3.029976 -5.102936 2.234684 -53.267814 -9.368187 -8.640040 54.084515 -77.565837 -34.198827 3.951738 2.272803 5.310983 -17.622580 18.043689 4.225962 -14.151935 6.449044 9.165027 0.000000 0.000000 0.000000 -18.157962 8.414773 -0.148732 -23.420586 8.108967 12.916857 0.000000 0.000000 0.000000 18.096484 -13.357245 -9.968672 -51.364062 -2.180367 -2.374357 0.000000 0.000000 0.000000 -9.540541 -0.288713 -1.027184 -38.989891 4.728317 10.291470 0.000000 0.000000 0.000000 5.495828 25.220394 23.191708 -0.184989 -16.252382 -5.215963 0.000000 0.000000 0.000000 -6.265551 7.225303 3.577343 57.205195 27.144338 4.688184 -132.446339 77.152030 -120.499257 4.114990 -2.527001 7.387486 19.050048 -7.157380 1.933650 18.548789 -2.908100 -0.360447 0.000000 0.000000 0.000000 24.437359 1.247351 -4.915135 33.417366 -1.869566 -4.787457 0.000000 0.000000 0.000000 -6.122276 22.669010 -26.095126 51.776753 7.634698 -11.091260 0.000000 0.000000 0.000000 21.143124 10.443930 -6.652633 40.288633 4.229856 -7.915992 0.000000 0.000000 0.000000 -1.497356 -21.092327 20.425595 -1.778331 10.499350 -3.958418 0.000000 0.000000 0.000000 
0.085299 0.918054 -0.028450 -2.839392 4.132900 -13.696001 1.681799 1.751303 14.657257 -1.735262 -0.225340 3.707765 5.553813 1.929138 -11.397726 0.000000 0.000000 0.000000 -6.449897 -0.602471 9.214156 4.560648 -0.430021 16.847771 -7.119086 -13.111342 -3.197153 0.000000 0.000000 0.000000 -1.967815 -0.639993 9.766613 -8.938240 1.219921 -13.084045 9.165676 1.515097 29.908803 1.990448 -0.296240 -0.158424 0.000000 0.000000 0.000000 -3.112608 -6.792688 3.036536 -53.293130 -10.055681 -8.789043 60.579214 -77.133626 -39.675943 3.916360 2.616778 4.654287 -14.493324 16.814985 4.381314 -6.255220 6.582792 14.701456 0.000000 0.000000 0.000000 -13.792503 6.937782 0.405311 -19.265196 9.659611 19.426989 0.000000 0.000000 0.000000 19.525612 -13.784047 -10.978548 -37.568070 0.290953 1.184521 0.000000 0.000000 0.000000 -5.268600 0.002863 -0.476637 -33.822132 4.401570 10.587887 0.000000 0.000000 0.000000 5.705068 24.401926 22.091704 -0.313239 -12.721705 -4.053796 0.000000 0.000000 0.000000 -5.730634 5.777052 2.841003 56.893689 27.653368 5.319839 -134.210174 76.189727 -121.223227 4.770022 -1.677846 6.182501 19.726351 -6.953496 1.902617 25.669994 -2.609551 -2.611416 0.000000 0.000000 0.000000 27.190177 0.008979 -4.923509 39.299783 -0.731842 -7.054101 0.000000 0.000000 0.000000 -0.740921 24.263377 -29.041074 50.147392 8.566992 -12.491624 0.000000 0.000000 0.000000 24.421317 11.201473 -6.935427 42.535186 6.201768 -10.345930 0.000000 0.000000 0.000000 -1.060659 -19.806216 19.119273 -1.676625 7.979899 -3.091000 0.000000 0.000000 0.000000 
0.087183 0.918134 -0.029770 -2.534469 3.701045 -14.153678 1.231908 1.894042 15.194644 -1.783316 -0.208519 3.611354 5.584471 2.268356 -11.214936 0.000000 0.000000 0.000000 -7.070764 -0.555561 9.420336 4.635434 -0.431202 17.123958 -6.882535 -12.565292 -3.221707 0.000000 0.000000 0.000000 -2.829514 -0.659042 10.104685 -9.373677 1.369819 -13.134114 9.818095 1.693315 30.027846 1.752710 -0.284135 0.019739 0.000000 0.000000 0.000000 -3.622830 -5.805239 2.487142 -53.709606 -9.615191 -8.897486 65.700003 -78.018606 -44.653091 3.207335 3.424729 3.381637 -12.250781 14.503688 4.096116 -4.445567 6.753414 16.921427 0.000000 0.000000 0.000000 -11.077635 6.105977 0.758983 -17.740696 9.464762 20.159492 0.000000 0.000000 0.000000 24.083114 -13.426814 -9.777703 -38.320239 0.205862 0.765854 0.000000 0.000000 0.000000 -1.709686 0.070950 -0.107495 -32.372768 3.865311 9.823923 0.000000 0.000000 0.000000 9.033050 23.399280 20.155816 -4.505811 -12.379913 -2.368574 0.000000 0.000000 0.000000 -6.408825 6.757937 3.268480 56.404237 28.959406 5.786590 -129.955136 75.218483 -115.291722 5.396570 -1.884113 4.370240 18.735909 -5.429321 1.647187 24.780216 -3.864819 0.097819 0.000000 0.000000 0.000000 26.372438 0.778467 -4.911889 38.242987 -1.201800 -5.538189 0.000000 0.000000 0.000000 -1.018418 23.202411 -29.106043 50.947331 6.258953 -8.410933 0.000000 0.000000 0.000000 25.012632 11.064342 -6.877345 39.228701 5.145187 -8.149596 0.000000 0.000000 0.000000 0.160289 -18.923332 18.207331 -4.043474 8.590067 -4.211856 0.000000 0.000000 0.000000 
0.089067 0.917973 -0.028450 -3.110764 4.394037 -14.104751 1.713992 1.781627 15.082872 -1.619977 -0.239666 3.721326 5.572924 1.669474 -11.650926 0.000000 0.000000 0.000000 -6.647311 -0.630654 9.622939 4.935848 -0.524026 16.973883 -7.038418 -13.116736 -2.766842 0.000000 0.000000 0.000000 -3.082876 -0.636919 9.729968 -8.766685 1.528644 -11.780875 9.883924 2.481491 28.770956 1.739784 -0.326713 0.356541 0.000000 0.000000 0.000000 -3.328955 -7.006688 3.077115 -54.099251 -9.298452 -9.129806 68.702345 -78.310318 -47.797530 2.906280 2.249989 2.394320 -13.854407 16.271881 4.353382 -10.456698 8.760438 17.537376 0.000000 0.000000 0.000000 -15.256789 6.082131 -0.150991 -22.499809 13.599023 26.311168 0.000000 0.000000 0.000000 20.156075 -13.918971 -12.210678 -46.572876 -1.129328 -0.873567 0.000000 0.000000 0.000000 -6.107999 -0.550103 -0.830587 -41.778817 4.032905 9.094403 0.000000 0.000000 0.000000 8.767129 25.698325 22.839232 -2.837329 -16.736017 -4.352967 0.000000 0.000000 0.000000 -7.250497 5.785164 2.758617 57.225209 27.732040 5.921411 -132.759098 74.498818 -117.703173 5.961691 -0.850189 4.277898 17.389919 -5.831924 1.783662 20.145945 -1.931177 -2.007220 0.000000 0.000000 0.000000 23.894649 2.460587 -5.110084 37.230475 -0.106108 -7.301207 0.000000 0.000000 0.000000 -7.824884 23.046462 -29.179837 50.359736 7.833053 -11.025378 0.000000 0.000000 0.000000 20.173356 11.242606 -7.059253 41.382724 6.266496 -9.885054 0.000000 0.000000 0.000000 -2.776671 -18.860168 17.536998 1.832404 9.826292 -2.405848 0.000000 0.000000 0.000000 
